<mxfile host="app.diagrams.net" modified="2021-09-01T16:19:08.338Z" agent="5.0 (Windows)" etag="TRVJYJsy8a-1S-h1gd4A" version="15.0.4" type="github">
  <diagram id="QyolU6ihDxcOWC8UX2Zj" name="Page-1">
    <mxGraphModel dx="782" dy="392" grid="1" gridSize="10" guides="1" tooltips="1" connect="1" arrows="1" fold="1" page="1" pageScale="1" pageWidth="850" pageHeight="1100" math="0" shadow="0">
      <root>
        <mxCell id="0" />
        <mxCell id="1" parent="0" />
        <mxCell id="nL41iff0GS4X93KEeHJT-1" value="" style="rounded=0;whiteSpace=wrap;html=1;" vertex="1" parent="1">
          <mxGeometry x="80" y="40" width="120" height="60" as="geometry" />
        </mxCell>
        <mxCell id="nL41iff0GS4X93KEeHJT-2" value="" style="rounded=0;whiteSpace=wrap;html=1;" vertex="1" parent="1">
          <mxGeometry x="80" y="160" width="120" height="60" as="geometry" />
        </mxCell>
        <mxCell id="nL41iff0GS4X93KEeHJT-3" value="" style="rounded=0;whiteSpace=wrap;html=1;" vertex="1" parent="1">
          <mxGeometry x="80" y="280" width="120" height="60" as="geometry" />
        </mxCell>
        <mxCell id="nL41iff0GS4X93KEeHJT-4" value="Insurance Client 3" style="text;html=1;strokeColor=none;fillColor=none;align=center;verticalAlign=middle;whiteSpace=wrap;rounded=0;" vertex="1" parent="1">
          <mxGeometry x="85" y="300" width="110" height="20" as="geometry" />
        </mxCell>
        <mxCell id="nL41iff0GS4X93KEeHJT-5" value="Insurance Client 2" style="text;html=1;strokeColor=none;fillColor=none;align=center;verticalAlign=middle;whiteSpace=wrap;rounded=0;" vertex="1" parent="1">
          <mxGeometry x="85" y="180" width="110" height="20" as="geometry" />
        </mxCell>
        <mxCell id="nL41iff0GS4X93KEeHJT-6" value="Insurance Client 1" style="text;html=1;strokeColor=none;fillColor=none;align=center;verticalAlign=middle;whiteSpace=wrap;rounded=0;" vertex="1" parent="1">
          <mxGeometry x="85" y="60" width="110" height="20" as="geometry" />
        </mxCell>
        <mxCell id="nL41iff0GS4X93KEeHJT-7" value="" style="shape=hexagon;perimeter=hexagonPerimeter2;whiteSpace=wrap;html=1;fixedSize=1;" vertex="1" parent="1">
          <mxGeometry x="510" y="150" width="120" height="80" as="geometry" />
        </mxCell>
        <mxCell id="nL41iff0GS4X93KEeHJT-8" value="Insurance Provider" style="text;html=1;strokeColor=none;fillColor=none;align=center;verticalAlign=middle;whiteSpace=wrap;rounded=0;" vertex="1" parent="1">
          <mxGeometry x="510" y="180" width="120" height="20" as="geometry" />
        </mxCell>
        <mxCell id="nL41iff0GS4X93KEeHJT-9" value="" style="endArrow=classic;html=1;exitX=1;exitY=0.5;exitDx=0;exitDy=0;" edge="1" parent="1" source="nL41iff0GS4X93KEeHJT-1">
          <mxGeometry width="50" height="50" relative="1" as="geometry">
            <mxPoint x="370" y="230" as="sourcePoint" />
            <mxPoint x="560" y="150" as="targetPoint" />
            <Array as="points">
              <mxPoint x="562" y="70" />
            </Array>
          </mxGeometry>
        </mxCell>
        <mxCell id="nL41iff0GS4X93KEeHJT-10" value="" style="endArrow=classic;html=1;entryX=0;entryY=0.5;entryDx=0;entryDy=0;" edge="1" parent="1" target="nL41iff0GS4X93KEeHJT-8">
          <mxGeometry width="50" height="50" relative="1" as="geometry">
            <mxPoint x="200" y="190" as="sourcePoint" />
            <mxPoint x="420" y="180" as="targetPoint" />
          </mxGeometry>
        </mxCell>
        <mxCell id="nL41iff0GS4X93KEeHJT-11" value="" style="endArrow=classic;html=1;exitX=1.073;exitY=0.65;exitDx=0;exitDy=0;exitPerimeter=0;" edge="1" parent="1" source="nL41iff0GS4X93KEeHJT-4">
          <mxGeometry width="50" height="50" relative="1" as="geometry">
            <mxPoint x="370" y="230" as="sourcePoint" />
            <mxPoint x="564" y="230" as="targetPoint" />
            <Array as="points">
              <mxPoint x="564" y="310" />
            </Array>
          </mxGeometry>
        </mxCell>
        <mxCell id="nL41iff0GS4X93KEeHJT-12" value="&lt;span class=&quot;pl-s&quot;&gt;/insurance-service&lt;/span&gt;&lt;span class=&quot;pl-s&quot;&gt;/getPlans&lt;span class=&quot;pl-pds&quot;&gt;&lt;/span&gt;&lt;/span&gt;" style="text;html=1;strokeColor=none;align=center;verticalAlign=middle;whiteSpace=wrap;rounded=0;fillColor=#CCCCCC;" vertex="1" parent="1">
          <mxGeometry x="250" y="60" width="160" height="20" as="geometry" />
        </mxCell>
        <mxCell id="nL41iff0GS4X93KEeHJT-13" value="http://localhost:8080&lt;span class=&quot;pl-s&quot;&gt;/insurance-service&lt;/span&gt;&lt;span class=&quot;pl-s&quot;&gt;/getPlans&lt;span class=&quot;pl-pds&quot;&gt;&lt;/span&gt;&lt;/span&gt;" style="text;html=1;strokeColor=none;align=center;verticalAlign=middle;whiteSpace=wrap;rounded=0;fillColor=#CCCCCC;" vertex="1" parent="1">
          <mxGeometry x="440" y="250" width="280" height="20" as="geometry" />
        </mxCell>
        <mxCell id="nL41iff0GS4X93KEeHJT-14" value="&lt;span class=&quot;pl-s&quot;&gt;/insurance-service&lt;/span&gt;&lt;span class=&quot;pl-s&quot;&gt;/getPlans&lt;span class=&quot;pl-pds&quot;&gt;&lt;/span&gt;&lt;/span&gt;" style="text;html=1;strokeColor=none;align=center;verticalAlign=middle;whiteSpace=wrap;rounded=0;fillColor=#CCCCCC;" vertex="1" parent="1">
          <mxGeometry x="250" y="180" width="160" height="20" as="geometry" />
        </mxCell>
        <mxCell id="nL41iff0GS4X93KEeHJT-15" value="&lt;span class=&quot;pl-s&quot;&gt;/insurance-service&lt;/span&gt;&lt;span class=&quot;pl-s&quot;&gt;/getPlans&lt;span class=&quot;pl-pds&quot;&gt;&lt;/span&gt;&lt;/span&gt;" style="text;html=1;strokeColor=none;align=center;verticalAlign=middle;whiteSpace=wrap;rounded=0;fillColor=#CCCCCC;" vertex="1" parent="1">
          <mxGeometry x="250" y="300" width="160" height="20" as="geometry" />
        </mxCell>
      </root>
    </mxGraphModel>
  </diagram>
</mxfile>
